<?xml version="1.0" standalone="no"?>
<!DOCTYPE svg PUBLIC "-//W3C//DTD SVG 1.1//EN" "http://www.w3.org/Graphics/SVG/1.1/DTD/svg11.dtd" >
<svg xmlns="http://www.w3.org/2000/svg">
<metadata>Generated by IcoMoon</metadata>
<defs>
<font id="CCU-Icons-Font" horiz-adv-x="1024">
<font-face units-per-em="1024" ascent="960" descent="-64" />
<missing-glyph horiz-adv-x="1024" />
<glyph unicode="&#x20;" horiz-adv-x="512" d="" />
<glyph unicode="&#xe900;" glyph-name="arrow_down" d="M544.481 125.604c-16.015-16.015-41.615-16.015-57.59 0l-474.89 474.235c-16.015 16.015-16.015 42.23 0 58.245l106.25 105.595c16.015 16.015 41.615 16.015 57.59 0l339.845-339.845 339.845 339.845c16.015 16.015 41.615 16.015 57.59 0l106.25-105.595c16.015-16.015 16.015-42.23 0-58.245l-474.89-474.235z" />
<glyph unicode="&#xe901;" glyph-name="arrow_up" d="M1005.878 289.661c15.789-15.765 15.789-41.674 0-57.463l-104.805-104.21c-15.789-15.765-41.079-15.765-56.868 0l-335.324 335.348-335.348-335.348c-15.789-15.765-41.055-15.765-56.844 0l-104.829 104.21c-15.789 15.789-15.789 41.698 0 57.463l468.587 467.968c15.789 15.789 41.055 15.789 56.844 0l468.587-467.968z" />
<glyph unicode="&#xe902;" glyph-name="check" d="M1014.67 646.201l-573.326-573.326c-12.004-12.004-28.672-18.66-45.34-18.66s-33.337 6.656-45.34 18.66l-332.004 332.004c-12.004 12.004-18.66 28.672-18.66 45.34s6.656 33.337 18.66 45.34l90.681 90.681c12.004 12.004 28.672 18.66 45.34 18.66s33.337-6.656 45.34-18.66l195.982-196.665 437.362 437.988c11.947 12.004 28.615 18.66 45.284 18.66s33.337-6.656 45.34-18.66l90.681-90.681c12.004-12.004 18.66-28.672 18.66-45.34s-6.656-33.337-18.66-45.34z" />
<glyph unicode="&#xe903;" glyph-name="envelope" d="M1007.616 142.982l-288.323 312.632 288.501 289.080c6.010 6.010 16.206 1.825 16.206-6.634v-588.577c0-8.682-10.596-12.822-16.384-6.5zM567.207 303.393c-16.518-16.607-38.957-25.912-62.419-25.912h-0.712c-23.819 0-46.748 9.439-63.622 26.312l-85.393 85.304-293.265-298.518c-5.877-6.010-1.647-16.117 6.723-16.117h890.435c8.326 0 12.6 9.884 7.034 15.894l-293.665 318.286-105.116-105.249zM503.986 343.73v0c6.367 0 12.288 2.538 16.785 6.945l436.536 437.293c5.966 6.010 1.736 16.206-6.678 16.206h-894.62c-8.415 0-12.689-10.195-6.678-16.161l438.005-437.248c4.408-4.541 10.418-7.034 16.651-7.034zM0 720.651v-575.132c0-8.459 10.285-12.689 16.25-6.589l291.84 297.005-291.929 291.395c-5.966 5.921-16.161 1.692-16.161-6.678z" />
<glyph unicode="&#xe904;" glyph-name="envelope_2" d="M926.767 595.503c-89.181-61.766-178.967-123.485-267.543-185.809-37.19-25.74-100.073-78.336-146.385-78.336h-1.164c-46.313 0-109.196 52.596-146.385 78.336-88.576 62.324-178.316 124.044-266.938 185.809-40.588 27.462-98.351 92.020-98.351 144.105 0 55.994 30.301 104.029 91.462 104.029h841.635c49.711 0 91.462-41.146 91.462-91.462 0-64.047-47.476-121.809-97.792-156.672zM1024.559 130.095c0-50.269-41.193-91.462-91.462-91.462h-841.635c-50.316 0-91.462 41.193-91.462 91.462v453.958c17.175-18.851 36.585-35.468 57.763-49.757 94.906-64.605 190.976-129.21 284.113-197.213 48.035-35.468 107.52-78.895 169.798-78.895h1.164c62.324 0 121.763 43.473 169.751 78.895 93.231 67.444 189.254 132.655 284.719 197.213 20.573 14.289 40.029 30.906 57.204 49.757v-453.958z" />
<glyph unicode="&#xe905;" glyph-name="envelope_round" d="M512 960c-282.783 0-512-229.217-512-512s229.217-512 512-512 512 229.217 512 512-229.217 512-512 512zM209.783 559.411l165.41-101.080-165.41-207.94v309.020zM228.671 228.523l170.894 214.881 112.094-68.54 111.912 68.904 171.076-215.268h-565.976zM814.217 249.481l-166.366 209.283 166.366 102.446v-311.728zM814.217 594.523l-302.581-186.345-301.852 184.457v50.244h604.456v-48.356z" />
<glyph unicode="&#xe906;" glyph-name="fb_round" d="M512 960c-282.845 0-512-229.155-512-512s229.155-512 512-512c282.845 0 512 229.155 512 512s-229.155 512-512 512zM659.571 684.054c-20.696 4.799-40.192 7.499-59.388 7.499-18.596 0-32.094-4.499-40.192-13.197s-12.298-25.495-12.298-50.39v-34.493h96.581v-101.68h-96.581v-386.624h-129.275v386.624h-71.386v101.68h71.686v36.593c0 41.092 4.499 71.686 13.197 91.782s24.895 36.593 48.291 49.49c23.395 12.598 53.090 19.196 88.783 19.196 36.893 0 72.886-5.399 107.979-16.497l-17.397-89.982z" />
<glyph unicode="&#xe907;" glyph-name="github" d="M986.466 195.072c-81.25-164.313-304.601-180.303-464.62-180.303-162.462 0-399.399 14.139-483.682 180.303-31.39 62.149-38.164 135.404-38.164 203.697 0 89.836 24.615 174.789 83.692 243.712-11.067 33.831-16.62 69.514-16.62 104.606 0 46.159 10.476 92.278 31.39 134.144 97.241 0 159.39-42.457 233.236-100.313 62.149 14.769 126.149 21.543 190.149 21.543 57.856 0 116.303-6.144 172.308-19.692 73.216 57.226 135.404 98.462 231.385 98.462 20.913-41.866 31.39-87.985 31.39-134.144 0-35.092-5.553-70.144-16.62-103.385 59.077-69.553 83.692-155.097 83.692-244.933 0-68.293-6.774-140.918-37.534-203.697zM728.615 467.692c-40.606 0-79.399-7.404-120.005-12.918-31.98-4.923-64-6.774-96.61-6.774s-64.63 1.851-96.61 6.774c-40.015 5.514-79.399 12.918-120.005 12.918-100.313 0-157.538-83.062-157.538-177.231 0-188.298 172.308-217.246 322.481-217.246h103.385c150.174 0 322.481 28.908 322.481 217.246-0.039 94.169-57.265 177.231-157.578 177.231zM315.077 172.308c-55.375 0-78.769 73.216-78.769 118.154s23.394 118.154 78.769 118.154 78.769-73.216 78.769-118.154-23.394-118.154-78.769-118.154zM708.923 172.308c-55.375 0-78.769 73.216-78.769 118.154s23.394 118.154 78.769 118.154 78.769-73.216 78.769-118.154-23.394-118.154-78.769-118.154z" />
<glyph unicode="&#xe908;" glyph-name="github_round" d="M624.64 458.24c-21.115 0-41.288-3.85-62.403-6.717-16.63-2.56-33.28-3.523-50.237-3.523s-33.608 0.963-50.237 3.523c-20.808 2.867-41.288 6.717-62.403 6.717-52.163 0-81.92-43.192-81.92-92.16 0-97.915 89.6-112.968 167.69-112.968h53.76c78.090 0 167.69 15.032 167.69 112.968-0.020 48.968-29.778 92.16-81.94 92.16zM409.6 304.64c-28.795 0-40.96 38.072-40.96 61.44s12.165 61.44 40.96 61.44 40.96-38.072 40.96-61.44-12.165-61.44-40.96-61.44zM614.4 304.64c-28.795 0-40.96 38.072-40.96 61.44s12.165 61.44 40.96 61.44 40.96-38.072 40.96-61.44-12.165-61.44-40.96-61.44zM512 960c-282.788 0-512-229.233-512-512s229.212-512 512-512 512 229.233 512 512-229.212 512-512 512zM758.723 316.477c-42.25-85.443-158.392-93.757-241.603-93.757-84.48 0-207.688 7.352-251.515 93.757-16.323 32.317-19.845 70.41-19.845 105.923 0 46.715 12.8 90.89 43.52 126.73-5.755 17.592-8.643 36.168-8.643 54.395 0 24.003 5.448 48.005 16.323 69.755 50.565 0 82.883-22.077 121.283-52.163 32.317 7.68 65.597 11.203 98.877 11.203 30.085 0 60.477-3.195 89.6-10.24 38.072 29.757 70.41 51.2 120.32 51.2 10.875-21.77 16.323-45.752 16.323-69.755 0-18.248-2.888-36.475-8.643-53.76 30.72-36.168 43.52-80.65 43.52-127.365 0-35.512-3.523-73.277-19.517-105.923z" />
<glyph unicode="&#xe909;" glyph-name="in" d="M122.667 710.656h-1.323c-74.027 0-121.344 50.688-121.344 114.005 0 64.683 49.323 114.005 123.989 114.005 75.349 0 121.984-49.323 122.667-114.005 0.683-63.317-47.317-114.005-123.989-114.005zM232.661-40.021h-219.989v660.693h219.989v-660.693zM1024-40.021h-219.349v353.323c0 88.661-32 149.333-111.317 149.333-60.672 0-96.683-40.661-112.683-80-5.333-14.677-7.339-34.005-7.339-54.016v-368.683h-219.307c2.688 598.656 0 660.651 0 660.651h219.349v-96h-1.323c28.672 45.355 80.683 111.317 199.339 111.317 144.683 0 252.672-94.677 252.672-297.344v-378.581z" />
<glyph unicode="&#xe90a;" glyph-name="in_round" d="M512 960c-282.788 0-512-229.233-512-512s229.212-512 512-512 512 229.233 512 512-229.212 512-512 512zM398.397 260.895h-105.595v317.133h105.595v-317.133zM345.6 621.22h-0.635c-35.512 0-58.245 24.33-58.245 54.723 0 31.048 23.675 54.723 59.515 54.723 36.168 0 58.552-23.675 58.88-54.723 0.328-30.392-22.712-54.723-59.515-54.723zM778.24 260.895h-105.288v169.595c0 42.557-15.36 71.68-53.432 71.68-29.123 0-46.408-19.517-54.088-38.4-2.56-7.045-3.523-16.323-3.523-25.928v-176.968h-105.288c1.29 287.355 0 317.112 0 317.112h105.288v-45.138c13.885 21.729 38.871 52.49 95.048 52.49 69.448 0 121.283-45.445 121.283-142.725v-181.719z" />
<glyph unicode="&#xe90b;" glyph-name="link" d="M970.672 79.708l-92.254-91.611c-33.892-33.892-79.671-52.097-127.378-52.097-48.295 0-94.128 18.847-128.020 53.328l-129.252 129.894c-33.839 33.892-52.043 79.671-52.043 127.378 0 49.58 20.078 96.644 55.202 131.126l-55.202 55.202c-34.535-35.124-80.956-55.202-130.537-55.202-47.706 0-94.128 18.847-128.020 52.686l-130.483 130.537c-34.481 34.481-52.686 79.671-52.686 127.967 0 47.706 19.436 94.128 53.328 127.378l92.254 91.611c33.892 33.892 79.671 52.097 127.378 52.097 48.295 0 94.074-18.847 127.967-53.328l129.252-129.894c33.892-33.892 52.097-79.671 52.097-127.378 0-49.58-20.078-96.644-55.202-131.126l55.202-55.202c34.535 35.124 80.956 55.202 130.537 55.202 47.706 0 94.128-18.847 128.020-52.686l130.537-130.537c34.535-34.535 52.686-79.671 52.686-128.020-0.054-47.653-19.489-94.074-53.382-127.324zM444.884 692.073l-129.252 129.894c-11.297 11.297-26.985 17.562-42.673 17.562s-31.376-6.264-42.673-16.919l-92.254-91.611c-11.297-11.297-17.562-26.396-17.562-42.084 0-16.33 6.264-31.376 17.562-42.673l130.537-130.537c11.297-11.244 26.985-16.866 42.673-16.866 18.204 0 32.607 6.264 45.19 19.436-20.721 20.721-45.19 38.283-45.19 70.248 0 33.25 26.985 60.235 60.235 60.235 32.018 0 49.58-24.469 70.301-45.19 13.171 12.529 20.721 26.985 20.721 45.779-0.054 15.741-6.318 31.429-17.615 42.727zM885.967 249.705l-130.537 130.537c-11.297 11.297-26.985 17.562-42.673 17.562-18.204 0-32.607-6.907-45.19-20.078 20.721-20.721 45.19-38.283 45.19-70.301 0-33.25-26.985-60.235-60.235-60.235-32.018 0-49.58 24.469-70.301 45.19-13.171-12.529-20.721-26.985-20.721-45.779 0-15.688 6.264-31.376 17.562-42.673l129.252-129.894c11.297-11.297 26.985-16.919 42.673-16.919s31.376 5.622 42.673 16.33l92.254 91.611c11.297 11.297 17.562 26.343 17.562 42.031 0.054 16.277-6.211 31.322-17.508 42.62z" />
<glyph unicode="&#xe90c;" glyph-name="login" d="M816.196-92.809h-599.040c-109.022 0-183.023 66.492-183.023 177.562 0 154.897 36.318 392.738 237.158 392.738 21.299 0 111.070-95.3 245.419-95.3s224.119 95.3 245.419 95.3c200.772 0 237.158-237.841 237.158-392.738-0.068-111.070-74.069-177.562-183.091-177.562zM516.642 433.596c-145.34 0-263.168 117.897-263.168 263.168s117.828 263.236 263.168 263.236 263.168-117.897 263.168-263.168-117.828-263.236-263.168-263.236z" />
<glyph unicode="&#xe90d;" glyph-name="map_marker" d="M675.095 595.316c0 87.645-71.587 158.906-159.651 158.906-87.924 0-159.697-71.261-159.697-158.906 0-87.692 71.773-159.139 159.697-159.139 88.064 0 159.651 71.447 159.651 159.139zM515.444-47.895l64.605 84.573c67.724 89.6 288.070 394.193 288.070 560.826 0 216.716-141.731 362.496-352.675 362.496-210.804 0-352.535-145.78-352.535-362.496 0-179.386 258.793-522.38 288.209-560.826l64.326-84.573zM292.864 595.316c0 122.321 99.887 222.022 222.58 222.022 122.88 0 222.72-99.7 222.72-222.022 0-122.415-99.887-222.068-222.72-222.068-122.694 0.047-222.58 99.654-222.58 222.068z" />
<glyph unicode="&#xe90e;" glyph-name="map_round" d="M647.305 516.585c0-73.57-59.641-133.211-133.211-133.211s-133.211 59.641-133.211 133.211c0 73.57 59.641 133.211 133.211 133.211s133.211-59.641 133.211-133.211zM512 960c-282.783 0-512-229.217-512-512s229.217-512 512-512 512 229.217 512 512-229.217 512-512 512zM512 97.974c-32.722 25.646-256.046 206.211-256.046 396.447 0 141.153 113.323 255.772 253.952 258.025v0.091c0.705 0 1.411-0.023 2.094-0.023s1.388 0.023 2.094 0.023v-0.091c140.629-2.253 253.952-116.873 253.952-258.025 0-190.236-223.323-370.802-256.046-396.447z" />
<glyph unicode="&#xe90f;" glyph-name="password" d="M948.284 202.36c-15.721 0-64.693 56.802-77.402 69.512l-58.067-58.067 133.060-133.060c10.903-10.903 16.926-26.022 16.926-41.141 0-33.912-38.731-72.584-72.584-72.584-15.119 0-30.238 6.084-41.141 16.926l-405.805 405.865c-63.488-47.164-140.89-79.209-220.702-79.209-131.855 0-222.569 91.317-222.569 222.569 0 198.355 198.355 396.71 396.71 396.71 131.313 0 222.569-90.714 222.569-222.569 0-79.812-32.045-157.214-79.209-220.762l214.679-214.679 58.067 58.067c-12.71 12.71-69.512 61.681-69.512 77.402 0 13.914 55.657 69.572 69.512 69.572 4.819 0 10.3-2.47 13.854-6.084 22.408-22.408 191.127-181.429 191.127-198.957 0-13.854-55.597-69.512-69.512-69.512zM387.072 813.749c-64.090 0-116.134-51.983-116.134-116.134 0-17.528 4.216-34.455 11.445-50.176-15.661 7.288-32.648 11.505-50.176 11.505-64.090 0-116.134-51.983-116.134-116.134s51.983-116.134 116.134-116.134 116.134 52.043 116.134 116.134c0 17.528-4.216 34.455-11.445 50.176 15.721-7.288 32.648-11.505 50.176-11.505 64.090 0 116.134 51.983 116.134 116.134s-52.043 116.134-116.134 116.134z" />
<glyph unicode="&#xe910;" glyph-name="phone" d="M1001.471 50.164c-15.254-35.612-55.969-58.955-88.704-77.086-42.94-23.343-86.586-37.132-135.281-37.132-67.641 0-128.713 27.686-190.544 50.16-44.352 16.014-87.292 35.666-127.301 60.366-123.664 76.381-272.734 225.45-349.114 349.114-24.7 40.063-44.352 82.949-60.366 127.301-22.529 61.832-50.16 122.904-50.16 190.544 0 48.749 13.789 92.395 37.077 135.281 18.186 32.735 41.475 73.449 77.086 88.704 23.994 10.966 74.915 22.583 101.081 22.583 5.157 0 10.206 0 15.309-2.171 15.254-5.103 31.269-40.715 38.543-55.318 23.289-41.475 45.818-83.655 69.812-124.37 11.617-18.946 33.44-42.18 33.44-64.709 0-44.352-131.644-109.115-131.644-148.364 0-19.597 18.186-45.112 28.337-62.538 73.449-132.35 165.084-223.985 297.434-297.434 17.48-10.206 42.94-28.337 62.538-28.337 39.303 0 104.012 131.644 148.364 131.644 22.529 0 45.818-21.823 64.709-33.44 40.715-23.994 82.895-46.523 124.37-69.812 14.549-7.274 50.16-23.289 55.263-38.543 2.226-5.103 2.226-10.206 2.226-15.254 0.109-26.275-11.563-77.195-22.474-101.189z" />
<glyph unicode="&#xe911;" glyph-name="phone_round" d="M512 960c-282.783 0-512-229.217-512-512s229.217-512 512-512 512 229.217 512 512-229.239 512-512 512zM817.675 238.581c-23.529-36.432-44.009-74.206-142.404-76.413-100.534-0.091-204.55 83.172-280.303 166.275-75.617 73.546-145.545 168.573-145.499 260.71 2.276 98.395 40.050 118.875 76.459 142.404 0 0 19.934 8.374 37.296-6.713 17.34-15.087 93.366-91.136 93.366-91.136s27.034-22.551 8.397-47.536c-14.837-19.888-49.084-56.525-53.567-61.349l12.834-24.189c17.18-28.308 49.926-78.052 98.964-118.352 33.064-27.193 88.997-57.025 88.974-56.98 8.055 7.487 41.483 38.434 60.097 52.361 24.986 18.66 47.514-8.351 47.514-8.351s76.049-76.072 91.159-93.412c15.087-17.385 6.713-37.319 6.713-37.319z" />
<glyph unicode="&#xe912;" glyph-name="phone2" d="M505.076 126.074c-74.264 54.955-147.163 130.536-211.042 218.502-82.798 114.249-140.581 236.203-162.572 343.381-9.655 47.445-12.093 90.843-6.875 125.806 5.51 37.059 19.407 64.707 40.57 80.116 5.608 4.047 11.41 8.436 17.506 13.166 34.426 26.429 77.434 59.343 124.879 51.834 34.962-5.559 65.536-31.695 92.891-79.726 35.206-61.928 46.275-105.374 35.304-141.117-10.24-33.694-37.986-53.297-67.291-74.264-3.316-2.438-6.68-4.827-10.191-7.314-10.191-7.412-7.022-32.475 8.387-66.999 15.36-34.718 42.959-79.433 81.725-132.974 89.771-123.758 132.827-146.92 150.479-149.65 6.095-1.024 9.167 0.585 11.264 2.048 3.511 2.389 6.924 4.974 10.24 7.266 32.329 23.845 62.854 46.275 104.009 39.692 33.061-5.218 68.169-29.501 110.69-76.215 35.889-39.643 51.249-75.483 47.299-109.422-5.656-49.591-51.59-81.042-88.405-106.398-6.388-4.486-12.581-8.68-18.139-12.727-20.529-14.97-50.42-19.797-86.357-14.092-53.443 8.485-119.028 40.082-184.369 89.088zM888.052-45.617c-12.727 77.775-86.211 129.56-86.845 130.048v0c-8.582 6.144-10.728 18.042-4.779 26.624 5.949 8.826 17.847 10.923 26.624 5.022 3.413-2.584 87.381-61.44 102.79-155.453 1.707-10.338-5.315-20.236-15.653-21.797-2.097-0.293-4.096-0.341-6.095 0.049-7.851 1.17-14.385 7.314-16.043 15.506z" />
<glyph unicode="&#xe913;" glyph-name="skype" d="M768-64c-58.667 0-112.683 20.011-155.989 53.333-32-6.656-66.005-10.667-100.011-10.667-259.328 0-469.333 210.005-469.333 469.333 0 34.005 4.011 68.011 10.667 100.011-33.323 43.307-53.333 97.323-53.333 155.989 0 141.355 114.688 256 256 256 58.667 0 112.683-20.011 155.989-53.333 32 6.656 66.005 10.667 100.011 10.667 259.328 0 469.333-210.005 469.333-469.333 0-34.005-4.011-68.011-10.667-100.011 33.323-43.307 53.333-97.323 53.333-155.989 0-141.355-114.645-256-256-256zM574.677 514.005l-69.333 16c-50.688 11.989-88.661 20.651-88.661 59.349 0 35.328 37.333 51.328 96 51.328 104.661 0 106.667-76.672 171.349-76.672 43.349 0 69.333 34.005 69.333 72.661 0 76.672-127.317 126.677-253.355 126.677-115.328 0-249.344-50.005-249.344-185.344 0-112 74.667-152.021 171.989-175.317l97.323-24.021c59.349-14.677 96-21.333 96-64 0-34.005-38.016-59.989-96.683-59.989-123.349 0-130.005 102.656-201.344 102.656-46.677 0-67.328-33.323-67.328-70.016 0-82.005 125.355-148.651 275.328-148.651 125.355 0 256 62.677 256 198.016 0.043 115.968-112.597 155.989-207.275 177.323z" />
<glyph unicode="&#xe914;" glyph-name="skype_round" d="M509.394 451.191c-5.769 1.43-2.611 6.467 2.063 6.391 4.536-0.073 6.844-4.961 8.9-4.709 2.062 0.254 3.816 3.403 0.577 6.221-2.804 2.441-6.345 3.785-11.788 3.28-4.27-0.396-8.325-3.197-8.82-8.66-0.495-5.466 5.856-8.241 10.883-8.999 3.523-0.529 8.329-2.268 5.443-5.63-2.652-3.094-7.668-1.181-8.987-0.341-1.319 0.845-2.806 3.872-5.28 3.703-2.478-0.166-3.697-3.482-0.657-6.39 2.722-2.604 5.69-4.035 12.035-3.698 6.352 0.338 12.039 6.052 9.812 11.435-2.224 5.381-8.405 5.967-14.181 7.397zM512 486.4c-21.209 0-38.4-17.191-38.4-38.4 0-21.207 17.191-38.4 38.4-38.4s38.4 17.193 38.4 38.4c0 21.209-17.191 38.4-38.4 38.4zM521.824 426.276c-2.309 0-4.465 0.672-6.294 1.821-1.178-0.217-2.389-0.338-3.633-0.338-11.022 0-19.948 9.015-19.948 20.135 0 1.077 0.084 2.138 0.247 3.173-1.213 1.893-1.918 4.147-1.918 6.576 0 6.671 5.327 12.080 11.904 12.080 2.398 0 4.627-0.722 6.502-1.961 1.044 0.176 2.12 0.266 3.214 0.266 11.017 0 19.948-9.018 19.948-20.137 0-0.923-0.067-1.835-0.186-2.732 1.306-1.937 2.067-4.28 2.068-6.804 0-6.673-5.328-12.078-11.904-12.078z" />
<glyph unicode="&#xe915;" glyph-name="telegram_logo" d="M659.12 615.716c-107.067-67.254-214.001-134.702-320.991-202.059-8.616-5.422-13.292-12.315-9.885-22.783 15.401-47.254 30.824-94.503 46.234-141.753 2.143 0.669 4.282 1.35 6.425 2.019 2.178 18.046 6.94 36.246 5.971 54.112-1.787 32.813 12.058 54.241 36.525 75.454 79.184 68.639 156.151 139.828 233.62 210.431 7.557 6.888 19.983 11.308 18.933 24.981-6.245 3.725-12.054 2.602-16.833-0.403zM512 960c-282.769 0-512-229.231-512-512s229.231-512 512-512c282.773 0 512 229.231 512 512s-229.227 512-512 512zM760.207 504.178c-21.287-100.144-42.342-200.362-64.044-300.425-10.257-47.301-29.847-54.927-68.918-26.906-40.717 29.191-81.305 58.634-120.779 89.467-15.971 12.478-26.683 11.998-40.306-2.726-18.526-20.052-38.029-39.41-58.776-57.138-24.103-20.584-39.795-15.59-49.89 14.428-16.696 49.603-33.383 99.231-48.797 149.246-5.238 17.009-13.772 26.717-31.398 31.523-35.098 9.58-69.874 20.588-104.221 32.607-16.057 5.62-41.917 4.647-41.24 28.081 0.617 20.682 24.24 24.823 40.803 31.261 111.375 43.302 222.93 86.145 334.451 129.108 80.71 31.098 161.299 62.509 242.223 93.033 29.388 11.089 48.008-1.719 48.33-35.037-11.955-56.363-24.66-116.446-37.438-176.521z" />
<glyph unicode="&#xe916;" glyph-name="vk" d="M942.933 539.068c-103.458-137.591-114.654-124.791-29.321-204.254 82.125-76.254 99.191-113.084 101.854-117.862 0 0 34.133-59.733-37.854-60.279l-136.533-2.15c-29.321-5.871-68.267 20.787-68.267 20.787-51.2 35.191-99.191 126.396-136.533 114.654 0 0-38.4-12.254-37.342-94.413 0.546-17.613-7.987-27.204-7.987-27.204s-9.591-10.138-28.262-11.742h-61.338c-134.929-8.533-253.884 115.746-253.884 115.746s-130.15 134.451-244.292 402.705c-7.475 17.613 0.546 26.146 0.546 26.146s7.987 10.138 30.413 10.138l146.125 1.058c13.858-2.15 23.484-9.591 23.484-9.591s8.533-5.871 12.8-17.067c23.996-59.733 54.921-114.142 54.921-114.142 53.35-109.875 89.6-128.546 110.387-117.35 0 0 27.204 16.521 21.333 149.333-2.15 47.991-15.462 69.871-15.462 69.871-12.254 16.555-35.191 21.333-45.329 22.938-7.987 1.058 5.325 20.275 22.938 28.809 26.146 12.8 72.533 13.346 127.454 12.8 43.213-0.546 55.467-3.209 71.987-6.929 50.654-12.254 33.587-59.187 33.587-172.271 0-36.284-6.929-86.938 19.217-103.458 11.196-7.475 38.946-1.058 107.213 115.2 0 0 32.017 55.467 57.071 120.013 4.267 11.742 13.346 16.521 13.346 16.521s8.533 4.813 20.275 3.209l153.6 1.058c46.387 5.871 53.862-15.462 53.862-15.462 7.987-21.879-17.101-73.079-80.009-156.809z" />
<glyph unicode="&#xe917;" glyph-name="vk_round" d="M512 960c-282.767 0-512-229.233-512-512s229.233-512 512-512c282.767 0 512 229.233 512 512s-229.233 512-512 512zM752.845 381.338c49.275-45.752 59.515-67.85 61.112-70.717 0 0 20.48-35.84-22.712-36.168l-81.92-1.29c-17.592-3.523-40.96 12.472-40.96 12.472-30.72 21.115-59.515 75.837-81.92 68.792 0 0-23.040-7.352-22.405-56.648 0.328-10.568-4.792-16.323-4.792-16.323s-5.755-6.083-16.957-7.045h-36.803c-80.957-5.12-152.33 69.448-152.33 69.448s-78.090 80.65-146.555 241.603c-4.485 10.568 0.328 15.688 0.328 15.688s4.792 6.083 18.248 6.083l87.675 0.635c8.315-1.29 14.090-5.755 14.090-5.755s5.12-3.523 7.68-10.24c14.397-35.84 32.952-68.485 32.952-68.485 32.010-65.925 53.76-77.128 66.232-70.41 0 0 16.323 9.912 12.8 89.6-1.29 28.795-9.277 41.923-9.277 41.923-7.352 9.912-21.115 12.8-27.197 13.763-4.792 0.635 3.195 12.165 13.763 17.285 15.688 7.68 43.52 8.008 76.472 7.68 25.928-0.328 33.28-1.925 43.192-4.157 30.392-7.352 20.152-35.512 20.152-103.363 0-21.77-4.157-52.163 11.53-62.075 6.717-4.485 23.368-0.635 64.328 69.12 0 0 19.21 33.28 34.243 72.008 2.56 7.045 8.008 9.912 8.008 9.912s5.12 2.888 12.165 1.925l92.16 0.635c27.832 3.523 32.317-9.277 32.317-9.277 4.792-13.128-10.24-43.848-48.005-94.085-62.095-82.534-68.813-74.854-17.613-122.532z" />
<glyph unicode="&#xe918;" glyph-name="facebook" d="M608 768h160v192h-160c-123.514 0-224-100.486-224-224v-96h-128v-192h128v-512h192v512h160l32 192h-192v96c0 17.346 14.654 32 32 32z" />
</font>
</defs>
</svg>
